<svg width="228" height="323" viewBox="0 0 228 323" fill="none" xmlns="http://www.w3.org/2000/svg">
<path d="M139.571 10.6888C138.932 7.21613 141.255 3.87497 144.756 3.4062C167.292 0.389116 190.253 1.89754 212.193 7.86331C234.063 13.8097 254.403 24.0441 271.958 37.9041C274.77 40.1238 275.008 44.2572 272.583 46.9008L245.209 76.7453C242.898 79.2657 239.017 79.4864 236.304 77.4121C224.818 68.6306 211.63 62.1195 197.49 58.2749C183.368 54.4351 168.618 53.3424 154.091 55.0372C150.644 55.4393 147.39 53.1888 146.763 49.7772L139.571 10.6888Z" fill="#AFE089"/>
<path d="M50.487 58.0221C47.8064 55.6453 47.624 51.5081 50.1972 49.0083C69.1274 30.6181 92.4076 16.9531 118.023 9.1997C121.332 8.19795 124.765 10.1701 125.7 13.4962L136.474 51.8234C137.433 55.2353 135.399 58.7574 132.025 59.8524C116.214 64.9845 101.796 73.4917 89.8447 84.742C87.3548 87.086 83.4735 87.2712 80.9185 85.0056L50.487 58.0221Z" fill="#28A263"/>
<path d="M8.40547 159.805C4.90491 159.765 2.09028 156.893 2.27918 153.397C3.98281 121.866 15.3198 91.5163 34.8571 66.1951C36.9472 63.4863 40.8367 63.0754 43.532 65.1753L75.7061 90.2426C78.5307 92.4433 78.9515 96.5387 76.8258 99.4261C65.0063 115.482 57.9812 134.374 56.5245 154.025C56.2657 157.516 53.4113 160.325 49.9107 160.284L8.40547 159.805Z" fill="#2DDB81"/>
<path d="M120.784 140.123V105.835H122.981V140.123H120.784ZM127.119 116.804C126.994 115.635 126.468 114.724 125.539 114.072C124.619 113.42 123.423 113.094 121.949 113.094C120.914 113.094 120.025 113.251 119.284 113.563C118.543 113.876 117.976 114.3 117.583 114.835C117.19 115.371 116.989 115.983 116.98 116.67C116.98 117.242 117.11 117.737 117.369 118.157C117.637 118.577 117.998 118.934 118.454 119.229C118.909 119.514 119.413 119.755 119.967 119.952C120.521 120.148 121.079 120.314 121.641 120.447L124.213 121.09C125.249 121.331 126.244 121.657 127.2 122.068C128.164 122.479 129.026 122.997 129.785 123.622C130.553 124.247 131.16 125.001 131.606 125.885C132.053 126.769 132.276 127.805 132.276 128.993C132.276 130.6 131.865 132.015 131.044 133.239C130.222 134.453 129.035 135.404 127.481 136.091C125.936 136.77 124.066 137.109 121.869 137.109C119.735 137.109 117.882 136.779 116.311 136.118C114.748 135.457 113.525 134.493 112.641 133.225C111.766 131.957 111.292 130.412 111.221 128.591H116.11C116.181 129.546 116.476 130.341 116.994 130.975C117.512 131.609 118.186 132.082 119.016 132.395C119.855 132.707 120.793 132.863 121.829 132.863C122.909 132.863 123.856 132.703 124.668 132.381C125.49 132.051 126.133 131.596 126.597 131.015C127.061 130.426 127.298 129.738 127.307 128.953C127.298 128.238 127.088 127.649 126.677 127.185C126.267 126.711 125.691 126.318 124.95 126.006C124.217 125.684 123.36 125.399 122.378 125.149L119.257 124.345C116.998 123.765 115.212 122.885 113.9 121.706C112.596 120.519 111.944 118.943 111.944 116.978C111.944 115.362 112.382 113.947 113.257 112.733C114.141 111.518 115.342 110.576 116.86 109.907C118.378 109.228 120.097 108.889 122.016 108.889C123.963 108.889 125.668 109.228 127.133 109.907C128.606 110.576 129.762 111.509 130.602 112.706C131.441 113.893 131.874 115.26 131.901 116.804H127.119ZM145.22 137.069C143.434 137.069 141.836 136.734 140.425 136.065C139.014 135.386 137.894 134.457 137.063 133.279C136.242 132.1 135.804 130.752 135.751 129.234H140.572C140.662 130.359 141.148 131.279 142.032 131.993C142.916 132.698 143.979 133.051 145.22 133.051C146.193 133.051 147.059 132.828 147.818 132.381C148.577 131.935 149.176 131.314 149.613 130.52C150.051 129.725 150.265 128.819 150.256 127.801C150.265 126.765 150.046 125.845 149.6 125.042C149.153 124.238 148.542 123.608 147.765 123.153C146.988 122.689 146.095 122.457 145.086 122.457C144.265 122.448 143.457 122.599 142.662 122.912C141.867 123.224 141.238 123.635 140.773 124.144L136.286 123.407L137.72 109.264H153.631V113.416H141.831L141.041 120.689H141.202C141.711 120.09 142.43 119.595 143.358 119.202C144.287 118.8 145.305 118.599 146.412 118.599C148.073 118.599 149.555 118.992 150.859 119.778C152.162 120.555 153.189 121.626 153.939 122.992C154.689 124.358 155.064 125.921 155.064 127.68C155.064 129.493 154.645 131.109 153.805 132.529C152.975 133.939 151.819 135.051 150.336 135.864C148.863 136.667 147.158 137.069 145.22 137.069ZM158.301 131.604V127.653L169.941 109.264H173.236V114.889H171.226L163.391 127.305V127.519H179.638V131.604H158.301ZM171.387 136.694V130.399L171.441 128.631V109.264H176.129V136.694H171.387ZM184.167 136.694L195.833 113.603V113.416H182.292V109.264H200.976V113.51L189.324 136.694H184.167ZM214.001 137.069C212.688 137.06 211.407 136.832 210.157 136.386C208.907 135.931 207.782 135.194 206.782 134.176C205.782 133.149 204.987 131.788 204.398 130.091C203.808 128.386 203.518 126.274 203.527 123.756C203.527 121.407 203.777 119.313 204.277 117.474C204.777 115.635 205.496 114.081 206.433 112.813C207.371 111.536 208.5 110.563 209.822 109.893C211.152 109.224 212.639 108.889 214.282 108.889C216.005 108.889 217.532 109.228 218.863 109.907C220.202 110.585 221.283 111.514 222.104 112.692C222.926 113.862 223.435 115.184 223.631 116.657H218.742C218.492 115.603 217.979 114.764 217.202 114.139C216.434 113.505 215.461 113.188 214.282 113.188C212.38 113.188 210.916 114.014 209.889 115.666C208.871 117.318 208.358 119.586 208.349 122.47H208.536C208.974 121.684 209.541 121.01 210.237 120.447C210.934 119.885 211.719 119.452 212.595 119.148C213.479 118.836 214.412 118.679 215.394 118.679C217.001 118.679 218.443 119.063 219.72 119.831C221.006 120.599 222.024 121.657 222.774 123.006C223.524 124.345 223.894 125.881 223.885 127.613C223.894 129.417 223.484 131.037 222.653 132.475C221.823 133.904 220.666 135.029 219.184 135.85C217.702 136.672 215.974 137.078 214.001 137.069ZM213.974 133.051C214.947 133.051 215.818 132.814 216.586 132.341C217.354 131.868 217.961 131.229 218.407 130.426C218.854 129.622 219.073 128.72 219.064 127.72C219.073 126.738 218.858 125.85 218.421 125.055C217.992 124.26 217.398 123.631 216.639 123.166C215.88 122.702 215.014 122.47 214.041 122.47C213.318 122.47 212.644 122.608 212.019 122.885C211.394 123.162 210.849 123.546 210.385 124.037C209.92 124.519 209.554 125.082 209.286 125.725C209.027 126.359 208.893 127.037 208.884 127.76C208.893 128.716 209.117 129.595 209.554 130.399C209.992 131.203 210.594 131.846 211.362 132.328C212.13 132.81 213.001 133.051 213.974 133.051Z" fill="white"/>
<path d="M109.399 165.742C109.338 165.23 109.092 164.832 108.66 164.549C108.229 164.265 107.7 164.124 107.072 164.124C106.614 164.124 106.213 164.198 105.869 164.346C105.528 164.495 105.262 164.699 105.07 164.958C104.881 165.218 104.786 165.513 104.786 165.843C104.786 166.12 104.852 166.358 104.984 166.557C105.119 166.752 105.29 166.916 105.5 167.047C105.709 167.175 105.928 167.281 106.157 167.366C106.386 167.447 106.597 167.512 106.789 167.563L107.841 167.846C108.111 167.917 108.411 168.015 108.741 168.14C109.075 168.264 109.394 168.435 109.697 168.65C110.004 168.863 110.257 169.136 110.456 169.47C110.655 169.803 110.754 170.213 110.754 170.699C110.754 171.258 110.608 171.764 110.314 172.216C110.024 172.668 109.6 173.027 109.04 173.293C108.483 173.56 107.807 173.693 107.012 173.693C106.27 173.693 105.628 173.573 105.085 173.334C104.545 173.094 104.121 172.76 103.81 172.332C103.503 171.904 103.33 171.407 103.289 170.84H104.584C104.618 171.231 104.749 171.555 104.979 171.811C105.211 172.064 105.505 172.253 105.859 172.378C106.216 172.499 106.6 172.56 107.012 172.56C107.491 172.56 107.92 172.482 108.301 172.327C108.682 172.169 108.984 171.95 109.207 171.67C109.429 171.386 109.54 171.056 109.54 170.678C109.54 170.334 109.444 170.055 109.252 169.839C109.06 169.623 108.807 169.448 108.494 169.313C108.18 169.178 107.841 169.06 107.477 168.959L106.203 168.595C105.393 168.362 104.753 168.03 104.281 167.598C103.809 167.167 103.573 166.602 103.573 165.904C103.573 165.324 103.729 164.818 104.043 164.387C104.36 163.952 104.785 163.615 105.317 163.375C105.854 163.133 106.452 163.011 107.113 163.011C107.78 163.011 108.374 163.131 108.893 163.37C109.412 163.606 109.824 163.93 110.127 164.341C110.434 164.753 110.596 165.22 110.613 165.742H109.399ZM112.37 176.424V165.742H113.523V166.976H113.665C113.752 166.841 113.874 166.669 114.029 166.46C114.187 166.248 114.413 166.059 114.706 165.894C115.003 165.725 115.404 165.641 115.91 165.641C116.564 165.641 117.141 165.805 117.64 166.132C118.139 166.459 118.528 166.922 118.808 167.522C119.088 168.123 119.228 168.831 119.228 169.647C119.228 170.469 119.088 171.182 118.808 171.786C118.528 172.386 118.14 172.851 117.645 173.182C117.149 173.509 116.578 173.672 115.93 173.672C115.431 173.672 115.032 173.59 114.732 173.425C114.432 173.256 114.201 173.066 114.039 172.853C113.877 172.637 113.752 172.459 113.665 172.317H113.563V176.424H112.37ZM113.543 169.626C113.543 170.213 113.629 170.731 113.801 171.179C113.973 171.624 114.224 171.973 114.555 172.226C114.885 172.476 115.29 172.6 115.769 172.6C116.268 172.6 116.684 172.469 117.018 172.206C117.355 171.939 117.608 171.582 117.776 171.134C117.948 170.682 118.034 170.179 118.034 169.626C118.034 169.08 117.95 168.588 117.781 168.15C117.616 167.708 117.365 167.359 117.028 167.103C116.694 166.843 116.274 166.713 115.769 166.713C115.283 166.713 114.875 166.836 114.545 167.082C114.214 167.325 113.965 167.666 113.796 168.104C113.627 168.539 113.543 169.047 113.543 169.626ZM124.021 173.672C123.272 173.672 122.627 173.507 122.084 173.177C121.544 172.843 121.128 172.378 120.835 171.781C120.545 171.181 120.4 170.483 120.4 169.687C120.4 168.891 120.545 168.19 120.835 167.583C121.128 166.973 121.536 166.498 122.058 166.157C122.584 165.813 123.198 165.641 123.899 165.641C124.304 165.641 124.704 165.709 125.098 165.843C125.493 165.978 125.852 166.197 126.175 166.501C126.499 166.801 126.757 167.199 126.949 167.694C127.141 168.19 127.237 168.8 127.237 169.525V170.031H121.249V168.999H126.024C126.024 168.561 125.936 168.17 125.761 167.826C125.589 167.482 125.342 167.211 125.022 167.012C124.705 166.813 124.331 166.713 123.899 166.713C123.424 166.713 123.013 166.831 122.665 167.067C122.321 167.3 122.057 167.603 121.871 167.978C121.686 168.352 121.593 168.753 121.593 169.181V169.869C121.593 170.456 121.694 170.953 121.897 171.361C122.102 171.766 122.387 172.074 122.751 172.287C123.115 172.496 123.539 172.6 124.021 172.6C124.334 172.6 124.618 172.556 124.87 172.469C125.127 172.378 125.348 172.243 125.533 172.064C125.718 171.882 125.862 171.656 125.963 171.386L127.116 171.71C126.995 172.101 126.791 172.445 126.504 172.742C126.217 173.035 125.863 173.264 125.442 173.43C125.02 173.592 124.547 173.672 124.021 173.672ZM129.962 168.837V173.511H128.768V165.742H129.921V166.956H130.022C130.205 166.562 130.481 166.245 130.852 166.005C131.223 165.762 131.702 165.641 132.288 165.641C132.814 165.641 133.274 165.749 133.669 165.965C134.063 166.177 134.37 166.501 134.589 166.936C134.809 167.367 134.918 167.914 134.918 168.574V173.511H133.725V168.655C133.725 168.045 133.566 167.57 133.249 167.229C132.932 166.885 132.497 166.713 131.944 166.713C131.563 166.713 131.223 166.796 130.923 166.961C130.626 167.126 130.392 167.367 130.22 167.684C130.048 168.001 129.962 168.386 129.962 168.837ZM139.748 173.672C139.1 173.672 138.529 173.509 138.033 173.182C137.538 172.851 137.15 172.386 136.87 171.786C136.59 171.182 136.45 170.469 136.45 169.647C136.45 168.831 136.59 168.123 136.87 167.522C137.15 166.922 137.539 166.459 138.038 166.132C138.537 165.805 139.114 165.641 139.768 165.641C140.274 165.641 140.673 165.725 140.967 165.894C141.263 166.059 141.489 166.248 141.644 166.46C141.803 166.669 141.926 166.841 142.014 166.976H142.115V163.153H143.308V173.511H142.155V172.317H142.014C141.926 172.459 141.801 172.637 141.639 172.853C141.477 173.066 141.246 173.256 140.946 173.425C140.646 173.59 140.247 173.672 139.748 173.672ZM139.91 172.6C140.388 172.6 140.793 172.476 141.123 172.226C141.454 171.973 141.705 171.624 141.877 171.179C142.049 170.731 142.135 170.213 142.135 169.626C142.135 169.047 142.051 168.539 141.882 168.104C141.713 167.666 141.464 167.325 141.134 167.082C140.803 166.836 140.395 166.713 139.91 166.713C139.404 166.713 138.982 166.843 138.645 167.103C138.311 167.359 138.06 167.708 137.892 168.15C137.726 168.588 137.644 169.08 137.644 169.626C137.644 170.179 137.728 170.682 137.897 171.134C138.069 171.582 138.322 171.939 138.655 172.206C138.992 172.469 139.411 172.6 139.91 172.6ZM145.375 173.511V165.742H146.569V173.511H145.375ZM145.982 164.448C145.749 164.448 145.549 164.368 145.38 164.21C145.215 164.051 145.132 163.861 145.132 163.638C145.132 163.416 145.215 163.225 145.38 163.067C145.549 162.908 145.749 162.829 145.982 162.829C146.215 162.829 146.414 162.908 146.579 163.067C146.747 163.225 146.832 163.416 146.832 163.638C146.832 163.861 146.747 164.051 146.579 164.21C146.414 164.368 146.215 164.448 145.982 164.448ZM149.664 168.837V173.511H148.47V165.742H149.623V166.956H149.724C149.906 166.562 150.183 166.245 150.554 166.005C150.925 165.762 151.403 165.641 151.99 165.641C152.516 165.641 152.976 165.749 153.371 165.965C153.765 166.177 154.072 166.501 154.291 166.936C154.51 167.367 154.62 167.914 154.62 168.574V173.511H153.426V168.655C153.426 168.045 153.268 167.57 152.951 167.229C152.634 166.885 152.199 166.713 151.646 166.713C151.265 166.713 150.925 166.796 150.625 166.961C150.328 167.126 150.093 167.367 149.922 167.684C149.75 168.001 149.664 168.386 149.664 168.837ZM159.652 176.586C159.075 176.586 158.58 176.511 158.165 176.363C157.75 176.218 157.405 176.026 157.128 175.787C156.855 175.55 156.638 175.298 156.476 175.028L157.427 174.36C157.534 174.502 157.671 174.664 157.836 174.846C158.001 175.031 158.227 175.191 158.514 175.326C158.804 175.465 159.183 175.534 159.652 175.534C160.279 175.534 160.797 175.382 161.205 175.078C161.613 174.775 161.817 174.3 161.817 173.652V172.074H161.715C161.628 172.216 161.503 172.391 161.341 172.6C161.183 172.806 160.953 172.99 160.653 173.152C160.357 173.31 159.955 173.389 159.45 173.389C158.822 173.389 158.259 173.241 157.76 172.944C157.265 172.647 156.872 172.216 156.582 171.649C156.295 171.083 156.152 170.395 156.152 169.586C156.152 168.79 156.292 168.097 156.572 167.507C156.852 166.914 157.241 166.455 157.74 166.132C158.239 165.805 158.816 165.641 159.47 165.641C159.976 165.641 160.377 165.725 160.674 165.894C160.974 166.059 161.203 166.248 161.361 166.46C161.523 166.669 161.648 166.841 161.736 166.976H161.857V165.742H163.01V173.733C163.01 174.401 162.858 174.944 162.555 175.362C162.255 175.783 161.85 176.092 161.341 176.287C160.835 176.486 160.272 176.586 159.652 176.586ZM159.611 172.317C160.09 172.317 160.495 172.207 160.825 171.988C161.156 171.769 161.407 171.454 161.579 171.043C161.751 170.631 161.837 170.139 161.837 169.566C161.837 169.006 161.752 168.512 161.584 168.084C161.415 167.656 161.166 167.32 160.835 167.077C160.505 166.835 160.097 166.713 159.611 166.713C159.106 166.713 158.684 166.841 158.347 167.098C158.013 167.354 157.762 167.698 157.593 168.129C157.428 168.561 157.346 169.04 157.346 169.566C157.346 170.105 157.43 170.582 157.599 170.997C157.77 171.408 158.023 171.732 158.357 171.968C158.694 172.201 159.112 172.317 159.611 172.317ZM168.226 164.265V163.153H175.995V164.265H172.738V173.511H171.483V164.265H168.226ZM178.677 168.837V173.511H177.484V163.153H178.677V166.956H178.778C178.96 166.555 179.234 166.236 179.598 166C179.965 165.761 180.454 165.641 181.064 165.641C181.594 165.641 182.057 165.747 182.455 165.96C182.853 166.169 183.162 166.491 183.381 166.926C183.603 167.357 183.715 167.907 183.715 168.574V173.511H182.521V168.655C182.521 168.038 182.361 167.561 182.041 167.224C181.724 166.884 181.284 166.713 180.721 166.713C180.329 166.713 179.979 166.796 179.669 166.961C179.362 167.126 179.119 167.367 178.94 167.684C178.765 168.001 178.677 168.386 178.677 168.837ZM185.613 173.511V165.742H186.807V173.511H185.613ZM186.22 164.448C185.988 164.448 185.787 164.368 185.618 164.21C185.453 164.051 185.371 163.861 185.371 163.638C185.371 163.416 185.453 163.225 185.618 163.067C185.787 162.908 185.988 162.829 186.22 162.829C186.453 162.829 186.652 162.908 186.817 163.067C186.986 163.225 187.07 163.416 187.07 163.638C187.07 163.861 186.986 164.051 186.817 164.21C186.652 164.368 186.453 164.448 186.22 164.448ZM194.211 167.482L193.139 167.785C193.071 167.607 192.972 167.433 192.84 167.265C192.712 167.093 192.537 166.951 192.314 166.84C192.092 166.728 191.807 166.673 191.459 166.673C190.984 166.673 190.588 166.782 190.271 167.002C189.957 167.217 189.801 167.492 189.801 167.826C189.801 168.123 189.909 168.357 190.124 168.529C190.34 168.701 190.677 168.844 191.136 168.959L192.289 169.242C192.983 169.411 193.501 169.669 193.842 170.016C194.182 170.36 194.352 170.803 194.352 171.346C194.352 171.791 194.224 172.189 193.968 172.54C193.715 172.89 193.361 173.167 192.906 173.369C192.451 173.571 191.921 173.672 191.318 173.672C190.526 173.672 189.87 173.501 189.35 173.157C188.831 172.813 188.503 172.31 188.364 171.649L189.497 171.366C189.605 171.784 189.809 172.098 190.109 172.307C190.413 172.516 190.809 172.62 191.298 172.62C191.854 172.62 192.296 172.502 192.623 172.266C192.953 172.027 193.118 171.74 193.118 171.407C193.118 171.137 193.024 170.911 192.835 170.729C192.646 170.544 192.356 170.405 191.965 170.314L190.671 170.011C189.959 169.842 189.436 169.581 189.103 169.227C188.772 168.869 188.607 168.423 188.607 167.887C188.607 167.448 188.73 167.061 188.976 166.723C189.226 166.386 189.565 166.122 189.993 165.929C190.424 165.737 190.913 165.641 191.459 165.641C192.228 165.641 192.832 165.81 193.27 166.147C193.712 166.484 194.025 166.929 194.211 167.482ZM201.628 173.511L198.796 163.153H200.07L202.235 171.589H202.336L204.541 163.153H205.957L208.163 171.589H208.264L210.428 163.153H211.703L208.871 173.511H207.576L205.29 165.257H205.209L202.923 173.511H201.628ZM215.353 173.672C214.604 173.672 213.959 173.507 213.416 173.177C212.876 172.843 212.46 172.378 212.167 171.781C211.877 171.181 211.732 170.483 211.732 169.687C211.732 168.891 211.877 168.19 212.167 167.583C212.46 166.973 212.868 166.498 213.39 166.157C213.916 165.813 214.53 165.641 215.231 165.641C215.636 165.641 216.036 165.709 216.43 165.843C216.824 165.978 217.184 166.197 217.507 166.501C217.831 166.801 218.089 167.199 218.281 167.694C218.473 168.19 218.569 168.8 218.569 169.525V170.031H212.581V168.999H217.356C217.356 168.561 217.268 168.17 217.093 167.826C216.921 167.482 216.674 167.211 216.354 167.012C216.037 166.813 215.663 166.713 215.231 166.713C214.756 166.713 214.345 166.831 213.997 167.067C213.653 167.3 213.389 167.603 213.203 167.978C213.018 168.352 212.925 168.753 212.925 169.181V169.869C212.925 170.456 213.026 170.953 213.229 171.361C213.434 171.766 213.719 172.074 214.083 172.287C214.447 172.496 214.871 172.6 215.353 172.6C215.666 172.6 215.95 172.556 216.202 172.469C216.459 172.378 216.68 172.243 216.865 172.064C217.05 171.882 217.194 171.656 217.295 171.386L218.448 171.71C218.327 172.101 218.123 172.445 217.836 172.742C217.549 173.035 217.195 173.264 216.774 173.43C216.352 173.592 215.879 173.672 215.353 173.672ZM223.357 173.672C222.609 173.672 221.963 173.507 221.42 173.177C220.881 172.843 220.464 172.378 220.171 171.781C219.881 171.181 219.736 170.483 219.736 169.687C219.736 168.891 219.881 168.19 220.171 167.583C220.464 166.973 220.872 166.498 221.395 166.157C221.921 165.813 222.535 165.641 223.236 165.641C223.64 165.641 224.04 165.709 224.434 165.843C224.829 165.978 225.188 166.197 225.512 166.501C225.835 166.801 226.093 167.199 226.286 167.694C226.478 168.19 226.574 168.8 226.574 169.525V170.031H220.586V168.999H225.36C225.36 168.561 225.272 168.17 225.097 167.826C224.925 167.482 224.679 167.211 224.359 167.012C224.042 166.813 223.667 166.713 223.236 166.713C222.76 166.713 222.349 166.831 222.002 167.067C221.658 167.3 221.393 167.603 221.208 167.978C221.022 168.352 220.93 168.753 220.93 169.181V169.869C220.93 170.456 221.031 170.953 221.233 171.361C221.439 171.766 221.724 172.074 222.088 172.287C222.452 172.496 222.875 172.6 223.357 172.6C223.671 172.6 223.954 172.556 224.207 172.469C224.463 172.378 224.684 172.243 224.869 172.064C225.055 171.882 225.198 171.656 225.299 171.386L226.452 171.71C226.331 172.101 226.127 172.445 225.84 172.742C225.554 173.035 225.2 173.264 224.778 173.43C224.357 173.592 223.883 173.672 223.357 173.672ZM229.217 170.678L229.197 169.202H229.44L232.838 165.742H234.315L230.694 169.404H230.593L229.217 170.678ZM228.105 173.511V163.153H229.298V173.511H228.105ZM233.041 173.511L230.006 169.667L230.856 168.837L234.558 173.511H233.041Z" fill="#A1A1A1"/>
</svg>
