<svg width="262" height="228" viewBox="0 0 262 228" fill="none" xmlns="http://www.w3.org/2000/svg">
<line opacity="0.05" x1="21.7928" y1="220.958" x2="374.483" y2="220.837" stroke="white" stroke-width="0.710075" stroke-dasharray="3.76 3.76"/>
<line opacity="0.05" x1="22.2344" y1="184.613" x2="374.483" y2="184.613" stroke="white" stroke-width="0.710075" stroke-dasharray="3.76 3.76"/>
<line opacity="0.05" x1="21.7926" y1="147.833" x2="374.483" y2="147.506" stroke="white" stroke-width="0.710075" stroke-dasharray="3.76 3.76"/>
<line opacity="0.05" x1="21.793" y1="111.271" x2="374.484" y2="111.271" stroke="white" stroke-width="0.710075" stroke-dasharray="3.76 3.76"/>
<line opacity="0.05" x1="21.7933" y1="74.7094" x2="374.484" y2="75.0328" stroke="white" stroke-width="0.710075" stroke-dasharray="3.76 3.76"/>
<line opacity="0.05" x1="21.7928" y1="38.1476" x2="374.483" y2="37.9288" stroke="white" stroke-width="0.710075" stroke-dasharray="3.76 3.76"/>
<line opacity="0.05" x1="23.0467" y1="0.573795" x2="375.737" y2="0.354993" stroke="white" stroke-width="0.710075" stroke-dasharray="3.76 3.76"/>
<g opacity="0.7">
<path opacity="0.7" d="M3.51471 79.8342C2.98701 79.8342 2.53279 79.7574 2.15204 79.6037C1.77797 79.4501 1.49074 79.2263 1.29035 78.9324C1.09663 78.6385 0.999775 78.2845 0.999775 77.8703C0.999775 77.543 1.06657 77.2525 1.20017 76.9986C1.33376 76.7381 1.5208 76.5277 1.76127 76.3674C2.00174 76.2071 2.27895 76.1069 2.5929 76.0668V76.2171C2.15872 76.1236 1.81137 75.9198 1.55086 75.6059C1.29703 75.2853 1.17011 74.9079 1.17011 74.4737C1.17011 74.0729 1.26363 73.7356 1.45066 73.4617C1.64437 73.1811 1.91825 72.9674 2.27227 72.8204C2.6263 72.6668 3.04045 72.59 3.51471 72.59C3.99566 72.59 4.4098 72.6668 4.75715 72.8204C5.11118 72.9674 5.38505 73.1811 5.57877 73.4617C5.77248 73.7356 5.86934 74.0729 5.86934 74.4737C5.86934 74.7609 5.80922 75.0281 5.68898 75.2752C5.57543 75.5157 5.41177 75.7161 5.19802 75.8764C4.98427 76.0367 4.73377 76.147 4.44654 76.2071V76.0668C4.92081 76.1336 5.30156 76.3306 5.58879 76.658C5.8827 76.9786 6.02965 77.3827 6.02965 77.8703C6.02965 78.2845 5.92946 78.6385 5.72906 78.9324C5.53535 79.2263 5.24812 79.4501 4.86737 79.6037C4.4933 79.7574 4.04242 79.8342 3.51471 79.8342ZM3.51471 79.1529C4.0825 79.1529 4.51 79.0426 4.79723 78.8222C5.09114 78.6018 5.2381 78.2678 5.2381 77.8202C5.2381 77.3794 5.09114 77.0521 4.79723 76.8383C4.51 76.6179 4.0825 76.5077 3.51471 76.5077C2.95361 76.5077 2.52611 76.6179 2.2322 76.8383C1.93828 77.0521 1.79133 77.3794 1.79133 77.8202C1.79133 78.2678 1.93828 78.6018 2.2322 78.8222C2.52611 79.0426 2.95361 79.1529 3.51471 79.1529ZM3.51471 75.8263C3.84202 75.8263 4.11923 75.7762 4.34635 75.676C4.58014 75.5692 4.76049 75.4189 4.88741 75.2251C5.01433 75.0314 5.07778 74.8043 5.07778 74.5438C5.07778 74.143 4.93751 73.8324 4.65696 73.612C4.38309 73.3849 4.00234 73.2713 3.51471 73.2713C3.02709 73.2713 2.64634 73.3849 2.37247 73.612C2.0986 73.8324 1.96166 74.143 1.96166 74.5438C1.96166 74.9446 2.0986 75.2585 2.37247 75.4857C2.64634 75.7128 3.02709 75.8263 3.51471 75.8263ZM9.5226 79.8342C8.71435 79.8342 8.09981 79.5236 7.67898 78.9024C7.25816 78.2811 7.04774 77.3827 7.04774 76.2071C7.04774 75.4189 7.14126 74.7576 7.3283 74.2232C7.51533 73.6821 7.79254 73.2746 8.15993 73.0008C8.534 72.7269 8.98822 72.59 9.5226 72.59C10.3375 72.59 10.9521 72.8972 11.3662 73.5118C11.7871 74.1196 11.9975 75.0147 11.9975 76.1971C11.9975 76.9853 11.9039 77.6499 11.7169 78.191C11.5299 78.732 11.2527 79.1428 10.8853 79.4234C10.5179 79.6973 10.0637 79.8342 9.5226 79.8342ZM9.5226 79.1228C10.0837 79.1228 10.4979 78.8857 10.765 78.4114C11.0389 77.9305 11.1759 77.1923 11.1759 76.1971C11.1759 75.1951 11.0389 74.4636 10.765 74.0027C10.4979 73.5352 10.0837 73.3014 9.5226 73.3014C8.96818 73.3014 8.55404 73.5352 8.28017 74.0027C8.00629 74.4703 7.86936 75.2018 7.86936 76.1971C7.86936 77.1923 8.00629 77.9305 8.28017 78.4114C8.55404 78.8857 8.96818 79.1228 9.5226 79.1228Z" fill="white"/>
<path opacity="0.7" d="M3.75519 116.155C3.20076 116.155 2.7265 116.022 2.33239 115.755C1.94496 115.481 1.65105 115.087 1.45066 114.572C1.25027 114.058 1.15007 113.437 1.15007 112.709C1.15007 112.094 1.21353 111.553 1.34044 111.086C1.46736 110.618 1.65439 110.224 1.90155 109.903C2.1487 109.576 2.44929 109.329 2.80332 109.162C3.15735 108.995 3.55813 108.911 4.00568 108.911C4.31295 108.911 4.6269 108.971 4.94753 109.092C5.27484 109.212 5.56207 109.382 5.80922 109.603C5.8827 109.656 5.92612 109.723 5.93948 109.803C5.95951 109.876 5.95951 109.95 5.93948 110.023C5.91944 110.09 5.8827 110.147 5.82926 110.194C5.7825 110.241 5.72238 110.267 5.6489 110.274C5.57543 110.274 5.49861 110.244 5.41845 110.184C5.19134 109.99 4.95755 109.853 4.71707 109.773C4.4766 109.686 4.23279 109.643 3.98564 109.643C3.55145 109.643 3.18072 109.75 2.87345 109.963C2.57286 110.177 2.34241 110.501 2.1821 110.935C2.02846 111.363 1.95164 111.9 1.95164 112.548V113.48H1.86147C1.90155 113.099 2.01176 112.772 2.19212 112.498C2.37915 112.218 2.61628 112.004 2.90351 111.857C3.19074 111.71 3.51471 111.637 3.87542 111.637C4.28957 111.637 4.65696 111.73 4.97759 111.917C5.29822 112.104 5.54871 112.368 5.72906 112.709C5.90942 113.043 5.99959 113.427 5.99959 113.861C5.99959 114.302 5.90608 114.696 5.71904 115.043C5.53201 115.391 5.26816 115.665 4.92749 115.865C4.58682 116.059 4.19605 116.155 3.75519 116.155ZM3.70509 115.454C3.999 115.454 4.25951 115.391 4.48662 115.264C4.71373 115.13 4.89075 114.946 5.01767 114.713C5.14458 114.472 5.20804 114.198 5.20804 113.891C5.20804 113.584 5.14458 113.313 5.01767 113.079C4.89075 112.846 4.71373 112.662 4.48662 112.528C4.25951 112.395 3.999 112.328 3.70509 112.328C3.41118 112.328 3.15067 112.395 2.92355 112.528C2.69644 112.662 2.51943 112.846 2.39251 113.079C2.26559 113.313 2.20214 113.584 2.20214 113.891C2.20214 114.198 2.26559 114.472 2.39251 114.713C2.51943 114.946 2.69644 115.13 2.92355 115.264C3.15067 115.391 3.41118 115.454 3.70509 115.454ZM9.5226 116.155C8.71435 116.155 8.09981 115.845 7.67898 115.224C7.25816 114.602 7.04774 113.704 7.04774 112.528C7.04774 111.74 7.14126 111.079 7.3283 110.544C7.51533 110.003 7.79254 109.596 8.15993 109.322C8.534 109.048 8.98822 108.911 9.5226 108.911C10.3375 108.911 10.9521 109.219 11.3662 109.833C11.7871 110.441 11.9975 111.336 11.9975 112.518C11.9975 113.307 11.9039 113.971 11.7169 114.512C11.5299 115.053 11.2527 115.464 10.8853 115.745C10.5179 116.019 10.0637 116.155 9.5226 116.155ZM9.5226 115.444C10.0837 115.444 10.4979 115.207 10.765 114.733C11.0389 114.252 11.1759 113.514 11.1759 112.518C11.1759 111.516 11.0389 110.785 10.765 110.324C10.4979 109.856 10.0837 109.623 9.5226 109.623C8.96818 109.623 8.55404 109.856 8.28017 110.324C8.00629 110.792 7.86936 111.523 7.86936 112.518C7.86936 113.514 8.00629 114.252 8.28017 114.733C8.55404 115.207 8.96818 115.444 9.5226 115.444Z" fill="white"/>
<path opacity="0.7" d="M4.69704 152.457C4.57012 152.457 4.46992 152.42 4.39645 152.347C4.32297 152.273 4.28623 152.17 4.28623 152.036V150.874H1.41058C1.27699 150.874 1.17011 150.844 1.08995 150.784C1.01647 150.717 0.979736 150.623 0.979736 150.503C0.979736 150.43 0.996435 150.356 1.02983 150.283C1.06323 150.202 1.12335 150.102 1.21019 149.982L4.26619 145.533C4.32631 145.44 4.39311 145.37 4.46658 145.323C4.54006 145.276 4.6269 145.253 4.72709 145.253C4.83397 145.253 4.92415 145.286 4.99763 145.353C5.07778 145.42 5.11786 145.527 5.11786 145.674V150.172H5.8493C5.97621 150.172 6.07307 150.202 6.13987 150.263C6.20667 150.323 6.24007 150.41 6.24007 150.523C6.24007 150.637 6.20667 150.723 6.13987 150.784C6.07307 150.844 5.97621 150.874 5.8493 150.874H5.11786V152.036C5.11786 152.17 5.08112 152.273 5.00765 152.347C4.93417 152.42 4.83063 152.457 4.69704 152.457ZM4.28623 150.172V146.285H4.5267L1.72119 150.393V150.172H4.28623ZM9.5226 152.477C8.71435 152.477 8.09981 152.166 7.67898 151.545C7.25816 150.924 7.04774 150.025 7.04774 148.85C7.04774 148.062 7.14126 147.4 7.3283 146.866C7.51533 146.325 7.79254 145.917 8.15993 145.643C8.534 145.37 8.98822 145.233 9.5226 145.233C10.3375 145.233 10.9521 145.54 11.3662 146.154C11.7871 146.762 11.9975 147.657 11.9975 148.84C11.9975 149.628 11.9039 150.293 11.7169 150.834C11.5299 151.375 11.2527 151.786 10.8853 152.066C10.5179 152.34 10.0637 152.477 9.5226 152.477ZM9.5226 151.765C10.0837 151.765 10.4979 151.528 10.765 151.054C11.0389 150.573 11.1759 149.835 11.1759 148.84C11.1759 147.838 11.0389 147.106 10.765 146.645C10.4979 146.178 10.0837 145.944 9.5226 145.944C8.96818 145.944 8.55404 146.178 8.28017 146.645C8.00629 147.113 7.86936 147.844 7.86936 148.84C7.86936 149.835 8.00629 150.573 8.28017 151.054C8.55404 151.528 8.96818 151.765 9.5226 151.765Z" fill="white"/>
<path opacity="0.7" d="M1.80135 188.708C1.65439 188.708 1.54418 188.675 1.4707 188.608C1.4039 188.534 1.3705 188.437 1.3705 188.317C1.3705 188.244 1.3872 188.174 1.4206 188.107C1.46068 188.033 1.51412 187.96 1.58092 187.886L3.82532 185.482C4.16599 185.114 4.4098 184.777 4.55676 184.47C4.71039 184.156 4.78721 183.838 4.78721 183.518C4.78721 183.117 4.66364 182.813 4.41648 182.606C4.17601 182.392 3.82198 182.285 3.3544 182.285C3.05381 182.285 2.76992 182.332 2.50273 182.426C2.23554 182.519 1.97836 182.663 1.73121 182.857C1.64437 182.923 1.56422 182.953 1.49074 182.947C1.42394 182.94 1.36382 182.913 1.31039 182.867C1.25695 182.82 1.22021 182.76 1.20017 182.686C1.18013 182.613 1.18013 182.539 1.20017 182.466C1.22689 182.392 1.28033 182.325 1.36048 182.265C1.62099 182.052 1.93494 181.881 2.30233 181.754C2.66972 181.621 3.04379 181.554 3.42454 181.554C3.8988 181.554 4.29959 181.627 4.6269 181.774C4.95421 181.921 5.20136 182.138 5.36835 182.426C5.53535 182.706 5.61885 183.05 5.61885 183.458C5.61885 183.738 5.57209 184.015 5.47857 184.289C5.39173 184.557 5.2548 184.83 5.06776 185.111C4.88741 185.391 4.65028 185.682 4.35637 185.983L2.22218 188.237V188.007H5.59881C5.72572 188.007 5.81924 188.037 5.87936 188.097C5.94615 188.15 5.97955 188.234 5.97955 188.347C5.97955 188.468 5.94615 188.558 5.87936 188.618C5.81924 188.678 5.72572 188.708 5.59881 188.708H1.80135ZM9.5226 188.798C8.71435 188.798 8.09981 188.488 7.67898 187.866C7.25816 187.245 7.04774 186.347 7.04774 185.171C7.04774 184.383 7.14126 183.722 7.3283 183.187C7.51533 182.646 7.79254 182.239 8.15993 181.965C8.534 181.691 8.98822 181.554 9.5226 181.554C10.3375 181.554 10.9521 181.861 11.3662 182.476C11.7871 183.084 11.9975 183.979 11.9975 185.161C11.9975 185.949 11.9039 186.614 11.7169 187.155C11.5299 187.696 11.2527 188.107 10.8853 188.387C10.5179 188.661 10.0637 188.798 9.5226 188.798ZM9.5226 188.087C10.0837 188.087 10.4979 187.85 10.765 187.375C11.0389 186.894 11.1759 186.156 11.1759 185.161C11.1759 184.159 11.0389 183.428 10.765 182.967C10.4979 182.499 10.0837 182.265 9.5226 182.265C8.96818 182.265 8.55404 182.499 8.28017 182.967C8.00629 183.434 7.86936 184.166 7.86936 185.161C7.86936 186.156 8.00629 186.894 8.28017 187.375C8.55404 187.85 8.96818 188.087 9.5226 188.087Z" fill="white"/>
<path opacity="0.7" d="M8.27203 225.119C7.46377 225.119 6.84923 224.809 6.42841 224.188C6.00758 223.566 5.79717 222.668 5.79717 221.492C5.79717 220.704 5.89068 220.043 6.07772 219.508C6.26475 218.967 6.54196 218.56 6.90935 218.286C7.28342 218.012 7.73764 217.875 8.27203 217.875C9.08696 217.875 9.7015 218.183 10.1156 218.797C10.5365 219.405 10.7469 220.3 10.7469 221.482C10.7469 222.271 10.6534 222.935 10.4663 223.476C10.2793 224.017 10.0021 224.428 9.6347 224.709C9.26731 224.983 8.81309 225.119 8.27203 225.119ZM8.27203 224.408C8.83313 224.408 9.24728 224.171 9.51447 223.697C9.78834 223.216 9.92527 222.478 9.92527 221.482C9.92527 220.48 9.78834 219.749 9.51447 219.288C9.24728 218.82 8.83313 218.587 8.27203 218.587C7.7176 218.587 7.30346 218.82 7.02959 219.288C6.75572 219.756 6.61878 220.487 6.61878 221.482C6.61878 222.478 6.75572 223.216 7.02959 223.697C7.30346 224.171 7.7176 224.408 8.27203 224.408Z" fill="white"/>
</g>
<g filter="url(#filter0_d_1_157)">
<path d="M22.2383 123.016L26.4212 128.858C30.6286 134.481 39.1169 146.491 47.4338 155.062C55.7753 163.961 64.0678 169.42 72.6294 157.956C80.9464 146.491 89.2633 117.011 97.8249 117.175C106.117 117.011 114.459 146.491 122.776 155.062C131.264 163.961 139.654 151.95 147.971 157.956C156.435 163.961 164.85 186.89 173.167 178.319C181.582 169.42 190.046 129.022 198.363 131.751C206.753 134.481 215.241 155.787 223.558 178.88C231.899 202.191 240.192 202.191 248.754 187.615C258.233 173.662 262.861 168.205 273.055 160.52C283.809 153.468 290.583 163.961 298.9 152.114C307.388 140.486 315.779 105.547 324.096 99.7053C332.559 94.0822 340.974 117.011 349.291 120.123C357.706 123.016 366.17 105.547 370.328 96.8119L374.487 88.077" stroke="#AFE089" stroke-width="2.8403" stroke-linecap="round"/>
</g>
<g filter="url(#filter1_d_1_157)">
<ellipse cx="97.0233" cy="116.639" rx="5.06232" ry="5.01832" fill="#719C58"/>
<path d="M97.0234 112.686C99.2397 112.686 101.021 114.465 101.021 116.639C101.02 118.813 99.2397 120.592 97.0234 120.592C94.8071 120.592 93.0265 118.813 93.0264 116.639C93.0264 114.464 94.8071 112.686 97.0234 112.686Z" stroke="#AFE089" stroke-width="2.13023"/>
</g>
<g filter="url(#filter2_d_1_157)">
<ellipse cx="198.441" cy="131.127" rx="5.06232" ry="5.01832" fill="#719C58"/>
<path d="M198.441 127.174C200.658 127.174 202.438 128.953 202.438 131.127C202.438 133.302 200.658 135.08 198.441 135.081C196.225 135.081 194.444 133.302 194.444 131.127C194.444 128.953 196.225 127.174 198.441 127.174Z" stroke="#AFE089" stroke-width="2.13023"/>
</g>
<g filter="url(#filter3_d_1_157)">
<ellipse cx="145.015" cy="156.482" rx="5.06232" ry="5.01832" fill="#719C58"/>
<path d="M145.016 152.529C147.232 152.529 149.013 154.308 149.013 156.482C149.013 158.656 147.232 160.435 145.016 160.435C142.799 160.435 141.019 158.656 141.019 156.482C141.019 154.308 142.799 152.529 145.016 152.529Z" stroke="#AFE089" stroke-width="2.13023"/>
</g>
<line x1="258.903" y1="220.039" x2="258.903" y2="103.56" stroke="white" stroke-width="0.710075" stroke-dasharray="1.42 4.97"/>
<defs>
<filter id="filter0_d_1_157" x="17.9777" y="86.6565" width="360.77" height="118.091" filterUnits="userSpaceOnUse" color-interpolation-filters="sRGB">
<feFlood flood-opacity="0" result="BackgroundImageFix"/>
<feColorMatrix in="SourceAlpha" type="matrix" values="0 0 0 0 0 0 0 0 0 0 0 0 0 0 0 0 0 0 127 0" result="hardAlpha"/>
<feOffset dy="2.8403"/>
<feGaussianBlur stdDeviation="1.42015"/>
<feColorMatrix type="matrix" values="0 0 0 0 0.156863 0 0 0 0 0.635294 0 0 0 0 0.388235 0 0 0 0.18 0"/>
<feBlend mode="normal" in2="BackgroundImageFix" result="effect1_dropShadow_1_157"/>
<feBlend mode="normal" in="SourceGraphic" in2="effect1_dropShadow_1_157" result="shape"/>
</filter>
<filter id="filter1_d_1_157" x="89.1206" y="111.62" width="15.8052" height="15.7172" filterUnits="userSpaceOnUse" color-interpolation-filters="sRGB">
<feFlood flood-opacity="0" result="BackgroundImageFix"/>
<feColorMatrix in="SourceAlpha" type="matrix" values="0 0 0 0 0 0 0 0 0 0 0 0 0 0 0 0 0 0 127 0" result="hardAlpha"/>
<feOffset dy="2.8403"/>
<feGaussianBlur stdDeviation="1.42015"/>
<feColorMatrix type="matrix" values="0 0 0 0 0.156863 0 0 0 0 0.635294 0 0 0 0 0.388235 0 0 0 0.03 0"/>
<feBlend mode="normal" in2="BackgroundImageFix" result="effect1_dropShadow_1_157"/>
<feBlend mode="normal" in="SourceGraphic" in2="effect1_dropShadow_1_157" result="shape"/>
</filter>
<filter id="filter2_d_1_157" x="190.539" y="126.109" width="15.8052" height="15.7172" filterUnits="userSpaceOnUse" color-interpolation-filters="sRGB">
<feFlood flood-opacity="0" result="BackgroundImageFix"/>
<feColorMatrix in="SourceAlpha" type="matrix" values="0 0 0 0 0 0 0 0 0 0 0 0 0 0 0 0 0 0 127 0" result="hardAlpha"/>
<feOffset dy="2.8403"/>
<feGaussianBlur stdDeviation="1.42015"/>
<feColorMatrix type="matrix" values="0 0 0 0 0.156863 0 0 0 0 0.635294 0 0 0 0 0.388235 0 0 0 0.03 0"/>
<feBlend mode="normal" in2="BackgroundImageFix" result="effect1_dropShadow_1_157"/>
<feBlend mode="normal" in="SourceGraphic" in2="effect1_dropShadow_1_157" result="shape"/>
</filter>
<filter id="filter3_d_1_157" x="137.113" y="151.464" width="15.8052" height="15.7172" filterUnits="userSpaceOnUse" color-interpolation-filters="sRGB">
<feFlood flood-opacity="0" result="BackgroundImageFix"/>
<feColorMatrix in="SourceAlpha" type="matrix" values="0 0 0 0 0 0 0 0 0 0 0 0 0 0 0 0 0 0 127 0" result="hardAlpha"/>
<feOffset dy="2.8403"/>
<feGaussianBlur stdDeviation="1.42015"/>
<feColorMatrix type="matrix" values="0 0 0 0 0.156863 0 0 0 0 0.635294 0 0 0 0 0.388235 0 0 0 0.12 0"/>
<feBlend mode="normal" in2="BackgroundImageFix" result="effect1_dropShadow_1_157"/>
<feBlend mode="normal" in="SourceGraphic" in2="effect1_dropShadow_1_157" result="shape"/>
</filter>
</defs>
</svg>
